<?xml version="1.0" encoding="utf-8" ?>
<svg xmlns="http://www.w3.org/2000/svg" xmlns:xlink="http://www.w3.org/1999/xlink" width="512" height="512">
	<path fill="#FF3B3B" d="M184.482 3.625C187.465 3.08767 191.026 8.63103 192.662 10.6043C205.224 25.7477 215.657 43.8827 219.298 63.4203C220.111 67.7837 220.166 78.5896 227.328 76.4401C232.65 74.8429 231.615 66.2194 230.996 62.0679C230.238 56.9884 229.319 54.1227 235.365 52.964C240.376 57.795 243.419 66.4187 245.871 72.7143C258.124 104.17 253.223 139.823 218.935 153.076C187.098 164.061 152.079 142.818 147.725 109.758C145.781 95.0037 152.768 86.2368 147.095 70.2902C146.438 68.4439 145.448 66.3308 145.269 64.375C149.289 56.3143 157.576 69.363 159.518 72.2721C175.507 60.5204 192.294 28.0808 184.349 9.1302C183.328 6.69353 181.102 4.8914 184.482 3.625Z"/>
	<path fill="#FFE50D" d="M201.482 85.8324C210.975 94.8475 222.73 111.299 223.604 124.15C224.604 138.856 214.603 150.015 200.012 150.846C185.589 152.316 177.109 135.977 178.102 123.461C179.018 111.912 186.205 103.796 193.229 95.2014C195.798 92.0588 198.373 88.4587 201.482 85.8324Z"/>
	<path fill="#FF3B3B" d="M161.122 321.128L160.889 321.111C139.055 318.16 120.787 298.312 123.304 275.704C124.131 268.282 126.628 260.721 128.498 253.492L143.231 194.369C144.752 188.398 146.125 182.275 148.528 176.581C154.691 161.978 171.011 154.553 186.342 156.379L186.75 156.431C188.192 156.597 189.544 156.92 190.946 157.293L192.39 157.7C204.631 161.406 211.806 172.068 218.92 181.932L228.787 194.993C235.601 203.709 235.58 203.711 246.135 205.938L281 212.428C290.644 214.132 289.915 215.25 298.207 219.11L298.473 219.229C302.676 225.463 306.424 230.384 306.816 238.336C306.768 240.086 306.692 241.663 306.304 243.375L306.242 243.689C305.009 249.705 299.525 255.736 294.606 259.009L293.933 259.427C286.494 263.994 280.014 263.187 271.74 261.746L217.746 251.344C214.227 250.806 214.447 255.851 213.221 259.75C211.353 265.689 209.506 272.109 206.771 277.701L240.877 287.433C244.744 288.55 248.606 289.784 252.633 290.136C254.587 291.67 257.541 292.346 259.818 293.373C264.794 295.617 269.881 298.349 273.934 302.068C275.325 303.345 276.363 304.992 278.222 305.535C284.207 316.025 282.716 327.679 282.726 339.296L282.84 395.779C282.429 398.621 282.711 401.886 282.706 404.779L282.701 422.419L282.467 422.897C281.656 425.458 282.981 433.094 282.272 437.07C279.832 450.758 264.57 457.776 251.875 455.118L251.476 455.037C242.476 453.149 232.819 445.053 231.582 435.465L231.273 417.091L231.163 341.266C230.531 340.724 229.387 340.636 228.569 340.404L222.819 338.743C209.13 334.649 195.336 329.851 181.329 327.012C178.824 325.89 175.662 325.603 173 324.763C169.109 323.535 165.272 321.056 161.122 321.128Z"/>
	<path fill="#525252" d="M161.122 321.128C165.272 321.056 169.109 323.535 173 324.763C175.662 325.603 178.824 325.89 181.329 327.012C195.336 329.851 209.13 334.649 222.819 338.743L228.569 340.404C229.387 340.636 230.531 340.724 231.163 341.266L231.412 417.091L231.307 435.465L181.577 435.3C181.022 437.468 180.814 439.709 180.25 441.902C172.029 473.832 149.333 501.809 115.691 508.622C108.762 510.025 101.788 509.811 94.76 509.815L83.0784 509.804C54.0306 509.727 26.3842 486.353 14.6694 461.042C-7.37188 413.419 15.9818 356.421 66.784 339.979C91.1801 332.084 118.304 333.959 140.536 347.285C141.798 346.328 142.947 344.465 143.98 343.229L161.122 321.128ZM90.1371 363.841C51.0679 367.551 25.7176 404.329 36.9048 441.314C48.8054 480.659 93.3872 497.689 127.702 474.527C139.691 466.109 148.278 453.374 152.381 439.366C152.808 437.909 154.024 435.251 152.852 435.25L93.3353 435.275C87.7719 435.379 84.0399 431.568 83.6498 425.957C83.3042 420.988 91.0707 413.819 94.2569 409.5L123.268 370.892C111.852 365.372 102.599 363.354 90.1371 363.841ZM181.329 327.012C179.069 329.22 177.313 332.084 175.441 334.637L162.21 352.212C160.126 354.725 158.178 357.262 155.686 359.395C169.398 371.24 176.94 387.838 180.684 405.207C181.016 406.747 182.445 416.143 182.901 416.726L225.093 416.675C227.206 416.679 229.393 416.58 231.412 417.091L231.163 341.266C230.531 340.724 229.387 340.636 228.569 340.404L222.819 338.743C209.13 334.649 195.336 329.851 181.329 327.012ZM139.813 379.863L114.95 413.79C114.462 414.5 113.535 415.711 113.453 416.583L128.613 416.654L154.564 416.591C153.412 404.98 147.207 389.275 139.813 379.863Z"/>
	<path fill="#525252" d="M298.473 219.229L346.864 219.319C349.829 219.323 353.028 219.15 355.957 219.604C369.121 221.647 372.674 232.539 375.908 243.141L401.703 326.706C402.928 330.596 404.336 334.47 405.208 338.457C409.356 338.064 413.372 337.231 417.57 337.056C437.766 336.213 459.335 341.151 475.232 354.223C496.848 371.999 509.347 394.673 509.271 422.625C509.137 472.272 471.952 509.757 423.064 509.801C415.154 509.808 408.496 509.057 400.838 506.696C341.775 488.487 320.412 414.848 360.625 368.426C368.876 358.901 378.354 351.763 388.67 344.653L379.766 319.42C376.741 323.505 373.052 327.1 369.566 330.789L292.272 413.638C289.31 416.604 286.16 420.141 282.63 422.419L282.706 404.779C282.711 401.886 282.429 398.621 282.901 395.779L282.726 339.296C282.716 327.679 284.207 316.025 278.222 305.535C276.363 304.992 275.325 303.345 273.934 302.068C269.881 298.349 264.794 295.617 259.818 293.373C257.541 292.346 254.587 291.67 252.633 290.136C248.606 289.784 244.744 288.55 240.877 287.433L206.771 277.701C209.506 272.109 211.353 265.689 213.221 259.75C214.447 255.851 214.227 250.806 217.746 251.344L271.74 261.746C280.014 263.187 286.494 263.994 293.933 259.427L294.606 259.009C299.525 255.736 305.009 249.705 306.242 243.689L306.304 243.375C306.692 241.663 306.768 240.086 306.816 238.336C306.424 230.384 302.676 225.463 298.473 219.229ZM420.532 365.104L416.289 365.359L425.221 394.922C427.39 401.371 435.573 421.637 433.813 427.5L433.728 427.797C431.419 435.373 421.66 436.947 418.305 429.573C416.183 424.91 414.657 419.853 413.02 415L400.18 375.661C399.785 374.461 399.56 373.155 399.046 372.006C367.984 389.29 357.739 424.743 376.273 455.817C383.955 467.402 394.438 477.191 408.513 480.103L418.154 481.988C420.427 482.367 422.856 482.248 425.159 482.249C453.751 482.26 477.564 460.621 481.861 432.492C486.581 401.595 463.648 369.931 432.584 365.454C428.58 364.877 424.566 364.969 420.532 365.104ZM306.816 238.336C306.768 240.086 306.692 241.663 306.304 243.375L306.242 243.689C305.009 249.705 299.525 255.736 294.606 259.009L293.933 259.427C286.494 263.994 280.014 263.187 271.74 261.746L217.746 251.344C214.227 250.806 214.447 255.851 213.221 259.75C211.353 265.689 209.506 272.109 206.771 277.701L240.877 287.433C244.744 288.55 248.606 289.784 252.633 290.136L366.428 274.678L359.437 254.206C357.885 249.307 356.598 243.557 354.163 239.059C351.764 238.029 347.975 238.393 345.391 238.386L306.816 238.336ZM278.222 305.535C284.207 316.025 282.716 327.679 282.726 339.296L282.906 395.779L373.099 298.285C370.796 293.991 371.416 292.94 366.75 293.58L278.222 305.535Z"/>
</svg>
